<?xml version="1.0" encoding="utf-8"?>
<!-- Generator: Adobe Illustrator 27.5.0, SVG Export Plug-In . SVG Version: 6.00 Build 0)  -->
<svg version="1.1" xmlns="http://www.w3.org/2000/svg" xmlns:xlink="http://www.w3.org/1999/xlink" x="0px" y="0px"
	 viewBox="0 0 500 500" style="enable-background:new 0 0 500 500;" xml:space="preserve">
<g id="background">
	<g>
		<defs>
			<rect id="SVGID_1_" x="0" width="500" height="500"/>
		</defs>
		
			<radialGradient id="SVGID_00000043427969074109294160000007425223333895160476_" cx="250" cy="250" r="250" gradientUnits="userSpaceOnUse">
			<stop  offset="0.2304" style="stop-color:#FFFFFF;stop-opacity:0"/>
			<stop  offset="0.6101" style="stop-color:#FCF7CE;stop-opacity:0.1"/>
			<stop  offset="0.9898" style="stop-color:#FAF0A2;stop-opacity:0.2"/>
		</radialGradient>
		<use xlink:href="#SVGID_1_"  style="overflow:visible;fill:url(#SVGID_00000043427969074109294160000007425223333895160476_);"/>
		<clipPath id="SVGID_00000082329238170910678240000005434623718940834442_">
			<use xlink:href="#SVGID_1_"  style="overflow:visible;"/>
		</clipPath>
		
			<radialGradient id="SVGID_00000111903452511612397720000009373921531667164094_" cx="250" cy="250" r="272" gradientUnits="userSpaceOnUse">
			<stop  offset="0.2304" style="stop-color:#FFFFFF;stop-opacity:0"/>
			<stop  offset="0.6101" style="stop-color:#FCF7CE;stop-opacity:0.1"/>
			<stop  offset="0.9898" style="stop-color:#FAF0A2;stop-opacity:0.2"/>
		</radialGradient>
		
			<rect x="-22" y="-22" style="opacity:0.6;clip-path:url(#SVGID_00000082329238170910678240000005434623718940834442_);fill:url(#SVGID_00000111903452511612397720000009373921531667164094_);" width="544" height="544"/>
	</g>
</g>
<g id="objects">
	<g>
		<g>
			<g>
				<path style="fill:#FFD406;" d="M44.845,334.998H15.842v73.267h0.016c-0.009,0.078-0.016,0.156-0.016,0.235
					c0,2.948,6.493,5.338,14.502,5.338c8.009,0,14.502-2.39,14.502-5.338c0-0.079-0.007-0.157-0.016-0.235h0.016V334.998z"/>
				<path style="fill:#FFB400;" d="M44.845,334.998c0,2.948-6.493,5.338-14.502,5.338s-14.502-2.39-14.502-5.338
					c0-2.948,6.492-5.338,14.502-5.338S44.845,332.05,44.845,334.998z"/>
				<path style="fill:#FFD406;" d="M40.747,328.732H19.941v3.829h0.011c-0.007,0.056-0.011,0.112-0.011,0.169
					c0,2.115,4.658,3.829,10.403,3.829c5.746,0,10.403-1.714,10.403-3.829c0-0.057-0.005-0.113-0.012-0.169h0.012V328.732z"/>
				<path style="fill:#FFB400;" d="M40.747,328.732c0,2.115-4.658,3.829-10.403,3.829c-5.746,0-10.403-1.715-10.403-3.829
					s4.658-3.829,10.403-3.829C36.089,324.903,40.747,326.617,40.747,328.732z"/>
				<polygon style="fill:#FFD406;" points="33.042,327.309 27.645,327.309 28.821,307.657 31.867,307.657 				"/>
				<path style="fill:#FFD406;" d="M33.042,327.309c0-0.394-1.208-0.713-2.699-0.713s-2.699,0.319-2.699,0.713
					c0,0.394,1.208,0.713,2.699,0.713S33.042,327.702,33.042,327.309z"/>
				<path style="fill:#C19D02;" d="M31.853,307.657c0-0.246-0.685-0.446-1.53-0.446c-0.845,0-1.53,0.199-1.53,0.446
					c0,0.246,0.685,0.445,1.53,0.445C31.168,308.102,31.853,307.903,31.853,307.657z"/>
			</g>
			<path style="opacity:0.2;" d="M30.344,307.212c-0.007,0-0.014-0.001-0.021-0.001c-0.845,0-1.53,0.199-1.53,0.445
				c0,0.023,0.012,0.046,0.024,0.068l-1.035,17.3c-4.504,0.421-7.841,1.919-7.841,3.707v2.55c-2.535,0.961-4.098,2.271-4.098,3.717
				v73.267h0.016c-0.009,0.078-0.016,0.156-0.016,0.235c0,2.948,6.493,5.338,14.502,5.338V307.212z"/>
		</g>
		<g>
			<g>
				<path style="fill:#C80C03;" d="M86.529,335.585H57.526v73.267h0.016c-0.009,0.078-0.016,0.156-0.016,0.235
					c0,2.948,6.493,5.338,14.502,5.338s14.502-2.39,14.502-5.338c0-0.079-0.007-0.157-0.016-0.235h0.016V335.585z"/>
				<ellipse style="fill:#D82A2A;" cx="72.027" cy="335.585" rx="14.502" ry="5.338"/>
				<path style="fill:#C80C03;" d="M82.431,329.318H61.624v3.829h0.012c-0.007,0.056-0.012,0.112-0.012,0.169
					c0,2.115,4.658,3.829,10.403,3.829c5.746,0,10.403-1.714,10.403-3.829c0-0.057-0.005-0.113-0.012-0.169h0.012V329.318z"/>
				<path style="fill:#D82A2A;" d="M82.431,329.318c0,2.115-4.658,3.829-10.403,3.829c-5.746,0-10.403-1.715-10.403-3.829
					s4.658-3.829,10.403-3.829C77.773,325.489,82.431,327.203,82.431,329.318z"/>
				<polygon style="fill:#C80C03;" points="74.726,327.895 69.329,327.895 70.505,308.243 73.55,308.243 				"/>
				<path style="fill:#C80C03;" d="M74.726,327.895c0-0.394-1.208-0.713-2.699-0.713c-1.49,0-2.699,0.319-2.699,0.713
					c0,0.394,1.208,0.713,2.699,0.713C73.518,328.608,74.726,328.289,74.726,327.895z"/>
				<ellipse style="fill:#9E0000;" cx="72.007" cy="308.243" rx="1.53" ry="0.446"/>
			</g>
			<path style="opacity:0.2;" d="M72.027,307.798c-0.007,0-0.014-0.001-0.021-0.001c-0.845,0-1.53,0.199-1.53,0.446
				c0,0.023,0.012,0.046,0.024,0.068l-1.035,17.3c-4.504,0.421-7.841,1.919-7.841,3.707v2.55c-2.535,0.961-4.098,2.271-4.098,3.717
				v73.267h0.016c-0.009,0.078-0.016,0.156-0.016,0.235c0,2.948,6.493,5.338,14.502,5.338V307.798z"/>
		</g>
	</g>
	<g>
		<path style="fill:#FFC1A9;" d="M289.552,270.056c0,0,19.23,7.005,21.1,18.488c5.253,32.257,18.31,93.052,40.022,91.078
			c19.119-1.738,18.423,8.292,10.274,13.866c-12.723,8.702-47.532-2.439-58.365-48.691
			C291.749,298.545,289.552,270.056,289.552,270.056z"/>
		<path style="fill:#EFA48E;" d="M310.652,288.543c5.253,32.257,18.31,93.052,40.022,91.078c11.484-1.044,15.813,2.159,15.678,6.09
			c-2.567-1.411-5.486-2.226-8.57-2.226c-2.166,0-4.253,0.393-6.203,1.094c-1.834-0.619-3.758-0.966-5.7-0.966h-0.064
			c-1.725,0-3.429,0.25-5.069,0.707c-0.42-0.03-0.839-0.067-1.266-0.067c-4.089,0-7.903,1.378-11.008,3.674
			c-10.721-7.871-20.874-21.721-25.889-43.132c-10.834-46.252-13.031-74.741-13.031-74.741S308.782,277.061,310.652,288.543z"/>
		<path style="fill:#9B100D;" d="M201.659,395.203l-0.017,9.193c0,0,45.076,19.549,105.799-2.544l-0.107-10.225L201.659,395.203z"/>
		<path style="fill:#E29779;" d="M241.994,239.713l0.219,18.645l-28.394,14.349c0,0,9.916,20.218,38.248,20.868
			c28.332,0.65,28.529-27.01,28.529-27.01l-24.357-7.846l0.44-19.177L241.994,239.713z"/>
		<path style="fill:#FFC1A9;" d="M213.961,270.056c0,0-19.23,7.005-21.1,18.488c-5.253,32.257-18.311,93.052-40.022,91.078
			c-19.119-1.738-18.423,8.292-10.274,13.866c12.723,8.702,47.532-2.439,58.365-48.691S213.961,270.056,213.961,270.056z"/>
		<path style="fill:#EFA48E;" d="M192.861,288.543c-5.253,32.257-18.311,93.052-40.022,91.078
			c-11.484-1.044-15.813,2.159-15.678,6.09c2.567-1.411,5.486-2.226,8.57-2.226c2.166,0,4.253,0.393,6.203,1.094
			c1.834-0.619,3.758-0.966,5.7-0.966h0.064c1.725,0,3.429,0.25,5.069,0.707c0.42-0.03,0.839-0.067,1.266-0.067
			c4.089,0,7.903,1.378,11.008,3.674c10.72-7.871,20.874-21.721,25.889-43.132c10.834-46.252,13.031-74.741,13.031-74.741
			S194.731,277.061,192.861,288.543z"/>
		<path style="fill:#F8C001;" d="M200.115,366.114c0,0-1.418,11.146-4.866,19.793c-3.449,8.647-0.233,12.69,19.693,17.321
			c19.926,4.631,69.794,10.67,90.888-4.877c0,0,7.566-9.691,3.413-17.698c-4.152-8.007-6.05-29.563-6.309-58.413
			c-0.043-4.843-4.973-51.57-4.973-51.57l-30.061-8.125c0,0,0.685,11.641-19.605,11.951c-15.562,0.238-16.1-13.244-16.1-13.244
			l-26.743,10.402l-3.562,60.064L200.115,366.114z"/>
		<path style="fill:#D39C00;" d="M308.758,387.206c-5.516,8.827-15.266,13.407-25.09,15.794c-8.099,1.968-16.803,3.47-25.171,3.297
			c-7.041-0.146-13.965-1.559-20.832-3.224c-3.751-0.309-7.458-1.01-11.011-2.277c-0.816-0.291-1.597-0.64-2.362-1.014
			c-0.466-0.107-0.933-0.215-1.399-0.318c-1.172-0.259-2.337-0.525-3.494-0.799c-9.682-1.482-18.729-4.958-24.212-12.594
			c-3.342,8.533-0.044,12.557,19.754,17.159c19.926,4.631,69.794,10.67,90.888-4.877c0,0,5.557-7.191,4.453-14.302
			C309.89,385.135,309.39,386.194,308.758,387.206z"/>
		<path style="fill:#F8C001;" d="M203.732,325.111c2.348-34.59,1.72-53.456,1.72-53.456s-15.417,6.898-16.441,18.503
			c-0.806,9.132-6.291,19.951-8.708,31.824C188.12,323.099,195.921,324.144,203.732,325.111z"/>
		<path style="fill:#D39C00;" d="M197.972,285.512c0.076-4.792,1.938-9.211,4.959-12.543c-4.415,2.516-13.158,8.546-13.92,17.188
			c-0.806,9.132-6.291,19.951-8.708,31.824c5.583,0.797,11.157,1.544,16.733,2.267C196.399,320.477,197.826,294.684,197.972,285.512
			z"/>
		<path style="fill:#F8C001;" d="M299.726,325.111c-2.348-34.59-1.765-54.441-1.765-54.441s16.486,7.883,17.51,19.487
			c0.812,9.198,5.365,20.434,7.684,31.824C315.337,323.099,307.537,324.144,299.726,325.111z"/>
		<path style="fill:#D39C00;" d="M308.682,314.817c-3.327-5.669-9.67-14.36-10.354-16.208c0.233,8.699,0.482,13.022,1.397,26.502
			c4.702-0.582,9.401-1.204,14.101-1.843C312.109,320.453,310.352,317.661,308.682,314.817z"/>
		<path style="fill:#FFC1A9;" d="M305.839,185.299c-0.065,0.001-0.129,0.01-0.194,0.012c-2.701-31.51-28.139-56.051-58.84-55.691
			c-30.745,0.36-55.629,25.562-57.527,57.191c-0.92-0.253-1.883-0.394-2.879-0.382c-5.992,0.07-10.789,5.215-10.715,11.492
			c0.074,6.277,4.99,11.308,10.981,11.238c1.744-0.02,3.381-0.481,4.832-1.264c7.164,25.697,29.948,44.352,56.741,44.038
			c26.144-0.307,48.06-18.573,55.202-43.481c0.86,0.21,1.753,0.329,2.674,0.319c6.187-0.073,11.14-5.386,11.064-11.867
			C317.102,190.422,312.025,185.227,305.839,185.299z"/>
		<path style="fill:#F2A891;" d="M214.813,204.048c-0.164-5.761,0.529-11.416,1.938-16.821
			c5.122-26.165,27.217-47.392,53.692-47.702c3.41-0.04,6.762,0.25,10.037,0.812c-9.57-6.887-21.187-10.862-33.675-10.715
			c-30.745,0.36-55.629,25.562-57.527,57.191c-0.92-0.253-1.883-0.394-2.879-0.382c-5.992,0.07-10.789,5.215-10.715,11.492
			c0.074,6.277,4.99,11.308,10.981,11.238c1.744-0.02,3.381-0.481,4.832-1.264c6.449,23.13,25.554,40.546,48.846,43.567
			C225.513,241.221,215.381,224.05,214.813,204.048z"/>
		<path style="fill:none;stroke:#B23600;stroke-miterlimit:10;" d="M201.967,127.505c0,0,9.8,1.463,12.417,9.322
			c0,0,2.109-8.546-3.956-14.47"/>
		<path style="fill:#9B100D;" d="M288.248,268.788c0.018-0.292,0.033-0.579,0.048-0.868l-7.189-1.355
			c0,0,5.206,45.272-11.627,53.286c-3.584,1.706-29.301-0.126-37.544,0c-15.562,0.238-11.145-53.964-11.145-53.964l-6.247,2.43
			c1.179,81.131,1.179,118.43-10.821,131.743c-0.628,5.118,11.43,8.779,11.829,8.872c14.517,3.374,65.845-0.098,91.666-5.202
			C306.297,400.531,280.595,389.531,288.248,268.788z"/>
		<path d="M226.589,189.385c0.04,3.413,2.111,6.156,4.625,6.126c2.515-0.03,4.52-2.82,4.48-6.233
			c-0.04-3.413-2.11-6.156-4.625-6.126C228.555,183.18,226.549,185.971,226.589,189.385z"/>
		<path d="M262.267,190.592c0.04,3.413,2.111,6.156,4.625,6.126c2.515-0.03,4.52-2.82,4.48-6.233
			c-0.04-3.413-2.11-6.156-4.625-6.126C264.233,184.388,262.227,187.18,262.267,190.592z"/>
		<path style="fill:#E29779;" d="M252.418,196.052c0,0,0.681-3.388,3.711-3.295c3.029,0.093,0.216,7.689,4.998,8.533
			c4.783,0.844,7.721,3.657,4.845,6.752C263.097,211.137,245.397,213.038,252.418,196.052z"/>
		<path style="fill:#F8FFFF;" d="M226.736,212.83c0,0,20.104,6.675,44.64,3.08c0,0-5.82,16.005-20.202,14.093
			C236.793,228.092,228.212,217.869,226.736,212.83z"/>
		<path style="fill:#E29779;" d="M188.602,203.889c0,0-8.436,2.436-7.376-7.061c1.06-9.497,8.966-7.274,8.966-7.274
			S195.982,200.077,188.602,203.889z"/>
		<path style="fill:#E29779;" d="M307.766,203.62c0,0,7.614,2.39,6.657-6.93c-0.957-9.321-9.45-7.135-9.45-7.135
			S301.104,199.878,307.766,203.62z"/>
		<path style="fill:#937B16;" d="M318.488,146.795c20.123-2.31,18.12-22.02,18.12-22.02s-10.7,12.93-20.75,3.937
			c0.722,0.231,1.455,0.424,2.206,0.55c1.338,0.278,2.751,0.283,4.058,0.144c1.323-0.227,2.567-0.592,3.552-1.244
			c0.245-0.159,0.495-0.289,0.708-0.463c0.21-0.18,0.414-0.353,0.602-0.53c0.396-0.332,0.695-0.708,0.955-1.071
			c0.576-0.677,0.814-1.419,1.087-1.943c0.224-0.557,0.302-1.034,0.391-1.33c0.068-0.305,0.105-0.468,0.105-0.468
			s-0.546,0.444-1.382,1.141c-0.475,0.293-0.966,0.718-1.621,0.995c-0.313,0.158-0.623,0.337-0.994,0.423
			c-0.179,0.054-0.352,0.118-0.528,0.179c-0.178,0.057-0.38,0.066-0.567,0.102c-0.194,0.022-0.372,0.082-0.57,0.095
			c-0.198,0.004-0.399,0.008-0.604,0.012c-0.387,0.05-0.834-0.06-1.246-0.073c-0.869-0.159-1.768-0.353-2.722-0.733
			c-0.949-0.325-1.925-0.825-2.926-1.307c-0.987-0.548-2.011-1.086-3.007-1.73c-1.019-0.592-2.008-1.275-3.007-1.919
			c-0.995-0.672-1.973-1.334-2.921-1.974c-1.29-0.887-2.529-1.739-3.692-2.527c2.576,0.645,5.014,1.262,7.163,1.815
			c0,0-49.712-43.675-97.002-1.769c0,0-18.511-4.214-28.44,18.702c-4.769,11.009-4.675,21.146-3.674,27.961
			c6.708,0.3,11.829,3.008,15.321,7.004c0.882,0.139,1.741,0.313,2.563,0.534c2.875-0.526,8.889-3.609,13.995-19.257
			c10.421,20.969,31.854,21.95,31.854,21.95s-17.027-7.63-23.014-19.334c-0.47-0.6,29.091,32.926,67.44,15.502
			c0,0-16.404,0.154-26.028-11.551c0,0,13.856,9.297,34.338,9.105l1.266,30.805c0,0,2.28,1.197,5.697-1.055
			c-1.453-12.61,2.971-9.805,2.971-9.805s0.996-18.286,1.276-22.696c15.801-3.99,23.362-15.158,23.362-15.158
			C323.979,151.517,318.488,146.795,318.488,146.795z"/>
		<path style="fill:#7C6609;" d="M227.563,159.881c-2.277-2.124-3.803-5.189-5.061-7.233c-0.145-0.185,1.944,1.763,5.476,4.552
			c-0.221-29.216,23.29-55.348,52.721-56.885c-18.102-5.627-43.533-7.037-66.803,14.773c0,0-18.511-4.214-28.439,18.702
			c-8.52,19.666-1.539,36.647-1.539,36.647s3.62,2.891,2.48,15.992c5.265-0.779,5.265,12.402,5.265,12.402h4.867l1.438-29.5
			c0,0,8.702,2.129,15.695-19.3c4.032,8.112,9.71,13.224,15.159,16.454C228.389,164.042,227.666,162.432,227.563,159.881z"/>
		<g>
			<path style="fill:#5B4A01;" d="M211.32,166.264c0,0,0.14-0.458,0.553-1.17c0.2-0.362,0.47-0.782,0.813-1.244
				c0.357-0.443,0.747-0.979,1.262-1.466c0.491-0.521,1.087-1.013,1.742-1.517c0.665-0.483,1.407-0.958,2.218-1.368
				c0.822-0.391,1.683-0.795,2.622-1.031c0.916-0.323,1.895-0.442,2.871-0.58c0.975-0.133,1.964-0.053,2.925-0.041
				c0.956,0.095,1.883,0.297,2.77,0.468c0.865,0.267,1.681,0.578,2.443,0.87c0.757,0.306,1.404,0.746,2.015,1.092
				c0.607,0.359,1.143,0.708,1.565,1.105c0.441,0.361,0.801,0.71,1.097,0.987c0.59,0.56,0.891,0.914,0.891,0.914
				s-0.484-0.056-1.268-0.213c-0.39-0.081-0.865-0.168-1.38-0.307c-0.511-0.154-1.121-0.221-1.758-0.33
				c-0.641-0.092-1.301-0.285-2.016-0.359c-0.717-0.067-1.455-0.162-2.207-0.265c-0.763-0.003-1.537-0.055-2.317-0.084
				c-0.391,0.022-0.782,0.055-1.175,0.059c-0.393,0.008-0.788,0.004-1.176,0.084c-0.781,0.095-1.566,0.166-2.323,0.356
				c-0.376,0.097-0.771,0.121-1.136,0.244c-0.369,0.109-0.735,0.216-1.104,0.306c-0.721,0.22-1.423,0.461-2.089,0.71
				c-0.658,0.266-1.302,0.505-1.875,0.783c-0.594,0.246-1.118,0.52-1.61,0.744c-0.459,0.258-0.906,0.452-1.244,0.647
				C211.724,166.043,211.32,166.264,211.32,166.264z"/>
		</g>
		<g>
			<path style="fill:#5B4A01;" d="M293.102,164.615c0,0-0.444-0.168-1.168-0.523c-0.359-0.18-0.804-0.389-1.281-0.665
				c-0.477-0.298-1.051-0.512-1.63-0.769c-0.594-0.245-1.159-0.58-1.83-0.831c-0.677-0.244-1.369-0.522-2.071-0.81
				c-0.739-0.192-1.473-0.441-2.223-0.661c-0.383-0.078-0.771-0.142-1.152-0.236c-0.383-0.09-0.764-0.196-1.159-0.213
				c-0.78-0.104-1.557-0.229-2.338-0.236c-0.389-0.001-0.776-0.073-1.161-0.048c-0.384,0.012-0.765,0.027-1.145,0.02
				c-0.753,0.032-1.493,0.089-2.199,0.164c-0.704,0.091-1.387,0.162-2.011,0.286c-0.637,0.088-1.213,0.222-1.745,0.314
				c-0.51,0.134-0.99,0.209-1.367,0.313c-0.781,0.196-1.228,0.308-1.228,0.308s0.251-0.41,0.828-0.995
				c0.284-0.301,0.651-0.64,1.098-1.002c0.456-0.341,0.968-0.761,1.589-1.104c0.606-0.382,1.306-0.708,2.067-1.031
				c0.765-0.3,1.603-0.573,2.491-0.767c0.894-0.168,1.829-0.349,2.798-0.337c0.968-0.083,1.946,0.05,2.924,0.163
				c0.978,0.117,1.914,0.445,2.841,0.697c0.899,0.336,1.749,0.759,2.563,1.15c0.77,0.475,1.481,0.981,2.145,1.456
				c0.658,0.487,1.199,1.093,1.708,1.586c0.507,0.509,0.939,0.984,1.226,1.454c0.323,0.448,0.576,0.869,0.792,1.209
				C292.89,164.189,293.102,164.615,293.102,164.615z"/>
		</g>
		<g>
			<path style="fill:#AF7D00;" d="M235.528,84.016l-23.452-8.773l-23.121,14.345l-1.782,9.1
				C187.174,98.689,218.34,105.024,235.528,84.016z"/>
			<path style="fill:#F8C001;" d="M256.042,98.915c0,0-18.041,17.62-28.751,21.648c0,0-34.238,9.698-35.967,5.54l-6.53-31.91
				l28.771-3.538l19.721-16.629L256.042,98.915z"/>
			<path style="fill:#D39C00;" d="M227.291,120.562c0,0-34.238,9.698-35.967,5.54l-6.53-31.91l28.771-3.538
				C213.565,90.654,228.261,109.555,227.291,120.562z"/>
		</g>
		<path style="fill:#D39C00;" d="M224.382,262.904l11.568-3.407c0,0-2.564,10.938,13.486,15.55l-15.698,15.973
			C233.738,291.019,224.397,277.394,224.382,262.904z"/>
		<path style="fill:#D39C00;" d="M272.668,262.904l-11.568-3.407c0,0,2.564,10.938-13.486,15.55l15.698,15.973
			C263.312,291.019,272.653,277.394,272.668,262.904z"/>
		<path style="fill:#D39C00;" d="M246.023,283.331c0,1.885,1.528,3.413,3.413,3.413c1.885,0,3.413-1.528,3.413-3.413
			c0-1.885-1.528-3.413-3.413-3.413C247.551,279.918,246.023,281.446,246.023,283.331z"/>
		<path style="fill:#D39C00;" d="M246.587,309.612c0,1.885,1.528,3.413,3.413,3.413s3.413-1.528,3.413-3.413
			c0-1.885-1.528-3.413-3.413-3.413S246.587,307.727,246.587,309.612z"/>
		<polygon style="fill:#9B100D;" points="201.642,399.245 195.587,488.682 320.757,488.34 307.365,398.352 		"/>
		<path style="fill:#7F0606;" d="M225.915,331.053c-0.024,0.548-0.037,1.1-0.037,1.655c0,17.37,11.815,31.451,26.389,31.451
			s26.389-14.081,26.389-31.451c0-0.555-0.013-1.107-0.037-1.655H225.915z"/>
		<path style="fill:#EFA48E;" d="M158.982,378.65c0,0-2.41-2.839-6.069-2.264c-3.659,0.576-8.906-1.344-9.802-0.448
			c-0.896,0.896-1.382,3.483,1.54,3.751c2.922,0.269,13.882,2.001,14.331,0.28C159.432,378.25,158.982,378.65,158.982,378.65z"/>
		<path style="fill:#EFA48E;" d="M344.53,378.65c0,0,2.41-2.839,6.069-2.264c3.659,0.576,8.906-1.344,9.802-0.448
			c0.896,0.896,1.382,3.483-1.54,3.751c-2.922,0.269-13.882,2.001-14.331,0.28C344.081,378.25,344.53,378.65,344.53,378.65z"/>
	</g>
	<g>
		<path style="fill:#894520;" d="M317.104,356.769c0,0-6.652-7.239,2.152-13.305c0,0-2.935-6.848,5.087-8.217
			c8.022-1.37,1.565-7.435,1.565-7.435s9.392-0.391,9.196,11.348c0,0,6.261-0.391,4.109,7.631c0,0,7.435,0.978,1.37,8.022
			C334.517,361.856,317.104,356.769,317.104,356.769z"/>
		<path style="fill:#702D0F;" d="M331.215,354.805c-6.59-0.189-7.658-8.839-3.132-11.645c-3.844-0.659-5.434-4.463-4.744-7.694
			c-6.754,1.753-4.083,7.999-4.083,7.999c-8.805,6.065-2.152,13.305-2.152,13.305s6.491,1.892,12.928,1.766
			C330.058,357.198,330.451,355.875,331.215,354.805z"/>
		<polygon style="fill:#EFD36D;" points="315.734,357.747 319.452,380.639 338.039,380.639 341.757,357.747 		"/>
		<polygon style="fill:#CEB257;" points="315.734,357.747 319.452,380.639 328.829,380.639 328.745,357.747 		"/>
		<path style="fill:#E6B360;" d="M344.594,357.747c0,1.621-1.314,2.935-2.935,2.935h-25.827c-1.621,0-2.935-1.314-2.935-2.935l0,0
			c0-1.621,1.314-2.935,2.935-2.935h25.827C343.28,354.812,344.594,356.126,344.594,357.747L344.594,357.747z"/>
		<path style="fill:#BA8D4A;" d="M330.357,354.812h-14.525c-1.621,0-2.935,1.314-2.935,2.935c0,1.621,1.314,2.935,2.935,2.935
			h14.814C330.605,358.724,330.513,356.768,330.357,354.812z"/>
	</g>
	<g>
		<path style="fill:#770C0C;" d="M308.013,353.354c-0.062,4.412-7.563,7.883-16.755,7.753c-9.191-0.129-16.592-3.811-16.53-8.222
			c0.062-4.411,7.564-7.883,16.755-7.753C300.675,345.262,308.075,348.943,308.013,353.354z"/>
		<g>
			<g>
				<polygon style="fill:#FFD406;" points="284.006,369.389 280.321,369.688 275.833,337.046 277.88,336.88 279.806,338.839 				"/>
				<polygon style="fill:#FFB400;" points="280.321,369.688 278.479,369.837 273.99,337.195 275.833,337.046 				"/>
				<polygon style="fill:#FFEC12;" points="279.806,338.839 276.121,339.138 273.99,337.195 277.88,336.88 				"/>
			</g>
			<g>
				<polygon style="fill:#FFD406;" points="285.808,360.685 282.108,360.525 284.51,327.753 286.566,327.842 288.056,330.013 				
					"/>
				<polygon style="fill:#FFB400;" points="282.108,360.525 280.258,360.445 282.661,327.673 284.51,327.753 				"/>
				<polygon style="fill:#FFEC12;" points="288.056,330.013 284.357,329.853 282.661,327.673 286.566,327.842 				"/>
			</g>
			<g>
				<polygon style="fill:#FFD406;" points="293.163,365.775 289.464,365.615 291.866,332.844 293.922,332.933 295.412,335.103 				
					"/>
				<polygon style="fill:#FFB400;" points="289.464,365.615 287.614,365.535 290.016,332.764 291.866,332.844 				"/>
				<polygon style="fill:#FFEC12;" points="295.412,335.103 291.712,334.944 290.016,332.764 293.922,332.933 				"/>
			</g>
			<g>
				<polygon style="fill:#FFD406;" points="296.955,363.96 293.286,363.562 299.276,331.062 301.314,331.283 302.561,333.543 				
					"/>
				<polygon style="fill:#FFB400;" points="293.286,363.562 291.452,363.363 297.441,330.863 299.276,331.062 				"/>
				<polygon style="fill:#FFEC12;" points="302.561,333.543 298.892,333.145 297.441,330.863 301.314,331.283 				"/>
			</g>
			<g>
				<polygon style="fill:#FFD406;" points="303.598,367.899 299.941,367.305 305.588,334.965 307.62,335.296 308.883,337.632 				
					"/>
				<polygon style="fill:#FFB400;" points="299.941,367.305 298.113,367.007 303.759,334.668 305.588,334.965 				"/>
				<polygon style="fill:#FFEC12;" points="308.883,337.632 305.226,337.037 303.759,334.668 307.62,335.296 				"/>
			</g>
			<g>
				<polygon style="fill:#FFD406;" points="303.649,363.797 299.946,363.913 298.205,331.116 300.262,331.052 302.019,333.102 				
					"/>
				<polygon style="fill:#FFB400;" points="299.946,363.913 298.095,363.97 296.353,331.174 298.205,331.116 				"/>
				<polygon style="fill:#FFEC12;" points="302.019,333.102 298.316,333.218 296.353,331.174 300.262,331.052 				"/>
			</g>
			<g>
				<polygon style="fill:#FFD406;" points="290.326,371.557 286.621,371.609 285.839,338.791 287.897,338.762 289.594,340.842 				
					"/>
				<polygon style="fill:#FFB400;" points="286.621,371.609 284.768,371.635 283.987,338.817 285.839,338.791 				"/>
				<polygon style="fill:#FFEC12;" points="289.594,340.842 285.889,340.894 283.987,338.817 287.897,338.762 				"/>
			</g>
		</g>
		<path style="fill:#B22F2B;" d="M291.275,359.916c-3.205-0.089-12.531-0.886-16.546-7.03l2.946,27.216c0,0,4.78,4.859,13.254,4.442
			c8.459,0.656,13.374-4.067,13.374-4.067l3.711-27.122C303.826,359.383,294.482,359.917,291.275,359.916z"/>
		<path style="fill:#F8C001;" d="M283.924,370.224c-0.056,3.979,3.124,7.25,7.103,7.306c3.979,0.056,7.25-3.124,7.306-7.103
			c0.056-3.979-3.124-7.25-7.103-7.306C287.251,363.065,283.98,366.245,283.924,370.224z"/>
		<path style="opacity:0.2;" d="M291.125,359.911c-3.333-0.109-12.44-0.971-16.397-7.025l2.946,27.216c0,0,4.724,4.798,13.104,4.446
			L291.125,359.911z"/>
		<rect x="282.727" y="368.668" style="fill:#E8E2D6;" width="16.797" height="3.503"/>
	</g>
	<g>
		<path style="fill:#772D14;" d="M266.273,365.061c0,3.512-2.188,6.359-4.886,6.359h-40.193c-2.699,0-4.886-2.847-4.886-6.359l0,0
			c0-3.512,2.188-6.359,4.886-6.359h40.193C264.086,358.702,266.273,361.549,266.273,365.061L266.273,365.061z"/>
		<path style="fill:#5B180E;" d="M265.851,366.339h-40.193c-2.699,0-4.886-2.847-4.886-6.359c0-0.43,0.034-0.85,0.096-1.257
			c-2.546,0.219-4.56,2.969-4.56,6.337c0,3.512,2.188,6.359,4.886,6.359h40.193c2.368,0,4.341-2.192,4.79-5.102
			C266.069,366.327,265.961,366.339,265.851,366.339z"/>
		<path style="fill:#D30000;" d="M263.368,358.724c0,2.368-6.384,4.289-14.26,4.289c-7.875,0-14.26-1.92-14.26-4.289
			c0-2.369,6.384-4.289,14.26-4.289C256.983,354.435,263.368,356.355,263.368,358.724z"/>
		<polygon style="fill:#D8A400;" points="220.771,358.702 230.849,367.131 243.286,357.91 		"/>
		<polygon style="fill:#FFC900;" points="221.512,358.381 231.59,366.809 244.027,357.589 		"/>
		<path style="fill:#7D9917;" d="M232.779,356.946c0,0-0.361,4.24,3.377,3.86c3.739-0.38,5.978-1.345,9.328,0.024
			s6.594,3.056,9.488-1.942c2.895-4.998,11.884,9.477,10.284-3.068C263.657,343.276,232.779,356.946,232.779,356.946z"/>
		<path style="fill:#7D9917;" d="M240.298,357.553c-0.11-0.204-0.228-0.404-0.353-0.599c-0.369-0.427-0.751-0.842-1.15-1.244
			c-1.162-1.171-1.754-2.805-1.659-4.428c-10.085,1.699-20.693,5.663-20.693,5.663s-0.428,4.24,4,3.86
			c4.427-0.38,7.079-1.345,11.046,0.024c3.641,1.257,7.176,2.776,10.383-0.846C241.187,359.324,240.64,358.497,240.298,357.553z"/>
		<path style="fill:#FFA224;" d="M215.41,358.702h51.76c0-14.293-11.587-23.629-25.88-23.629
			C226.997,335.074,215.41,344.409,215.41,358.702z"/>
		<path style="fill:#E8811A;" d="M241.29,335.074c-14.293,0-25.88,9.335-25.88,23.629h25.88V335.074z"/>
		<path style="fill:#FFA224;" d="M225.703,380.723h31.175c6.251-1.975,10.292-5.22,10.292-9.303h-51.76
			C215.41,375.502,219.452,378.748,225.703,380.723z"/>
		<path style="fill:#E8811A;" d="M225.703,380.723h15.588v-9.303h-25.88C215.41,375.502,219.452,378.748,225.703,380.723z"/>
	</g>
	<g>
		<g>
			<path style="fill:#B22F2B;" d="M167.742,309.358l6.504,71.459c0.022,2.504,28.651,2.255,28.629-0.249l4.956-71.558
				L167.742,309.358z"/>
			
				<ellipse transform="matrix(0.7071 -0.7071 0.7071 0.7071 -181.8546 230.7113)" style="fill:#F8C001;" cx="187.566" cy="334.874" rx="10.918" ry="10.918"/>
			<rect x="173.495" y="332.837" style="fill:#E8E2D6;" width="28.141" height="5.869"/>
		</g>
		<path style="opacity:0.2;" d="M188.481,309.177l-20.739,0.18l6.504,71.459c0.011,1.246,7.109,1.811,14.235,1.754V309.177z"/>
		<path style="fill:#FFFFFF;" d="M190.073,282.018c0.024-0.797-0.316-1.357-1.023-1.718c-5.713-2.923-7.935-4.258-13.647-7.18
			c-1.899-0.971-3.109,2.103-1.233,3.063c5.36,2.742,12.589,6.639,12.589,6.639s0,0-0.628,21.17
			c0.077,1.604,3.182,1.956,3.279,0.374C189.915,296.132,189.852,289.467,190.073,282.018z"/>
		<g>
			<path style="fill:#D31005;" d="M173.646,273.455l15.306,8.116l-0.759,23.807c0.128-0.009,0.252-0.029,0.369-0.061l0.764-23.966
				l-15.4-8.164C173.822,273.262,173.729,273.353,173.646,273.455z"/>
			<path style="fill:#D31005;" d="M187.383,282.45l-0.636,22.553c0.112,0.076,0.232,0.142,0.361,0.196l0.648-22.97l-14.52-7.711
				c-0.01,0.141-0.003,0.283,0.02,0.423L187.383,282.45z"/>
		</g>
		<path style="opacity:0.2;" d="M188.382,281.694l-14.934-7.938c-0.404,0.781-0.288,1.909,0.722,2.426
			c5.36,2.742,12.589,6.639,12.589,6.639s0,0-0.628,21.17c0.037,0.766,0.763,1.246,1.523,1.367L188.382,281.694z"/>
		<rect x="171.627" y="301.315" style="fill:#E8E2D6;" width="32.321" height="4.049"/>
		<rect x="171.627" y="301.315" style="opacity:0.6;fill:#968A78;" width="16.854" height="4.049"/>
		<rect x="165.203" y="304.616" style="fill:#C4AE8A;" width="45.169" height="6.515"/>
		<rect x="165.203" y="304.616" style="fill:#968A78;" width="23.278" height="6.515"/>
	</g>
	<g>
		<g>
			<path style="fill:#7F0606;" d="M384.645,380.653c0,4.903-5.628,8.878-7.518,8.878H121.849c-1.89,0-6.494-3.975-6.494-8.878l0,0
				H384.645L384.645,380.653z"/>
			<path style="opacity:0.5;fill:#C64646;" d="M383.136,385.092c0.89-1.307,1.509-2.82,1.509-4.439h-269.29
				c0,1.619,0.507,3.132,1.247,4.439H383.136z"/>
		</g>
		<path style="fill:#FFC1A9;" d="M142.562,394.567c3.64,2.618,10.016,1.474,10.016,1.474c4.101-1.095,3.495-1.242,4.101-1.679
			c-1.094-1.666-13.957-4.959-14.816-6.194c-1.597-2.295,0.427-4.558,0.427-4.558c3.165-2.072-1.796-8.639-5.676-1.753
			C133.248,387.831,140.354,393.091,142.562,394.567z"/>
		<path style="fill:#FFC1A9;" d="M144.817,394.362c1.19-1.084,2.523-1.989,3.961-2.667c-0.85-1.011-1.661-1.958-2.062-2.645
			c-1.554-2.66,1.067-4.945,1.067-4.945c3.914-1.97-0.984-9.616-6.329-2.449C138.098,386.156,141.684,391.216,144.817,394.362z"/>
		<path style="fill:#FFC1A9;" d="M152.46,390.539c-0.711-0.891-1.382-1.723-1.717-2.332c-1.33-2.412,0.942-4.504,0.942-4.504
			c3.386-1.811-0.809-8.743-5.451-2.197c-2.587,3.647-0.457,7.667,1.936,10.515C149.511,391.313,150.951,390.808,152.46,390.539z"/>
		<path style="fill:#FFC1A9;" d="M360.951,394.567c-3.639,2.618-10.016,1.474-10.016,1.474c-4.101-1.095-3.495-1.242-4.101-1.679
			c1.094-1.666,13.957-4.959,14.816-6.194c1.597-2.295-0.427-4.558-0.427-4.558c-3.165-2.072,1.796-8.639,5.676-1.753
			C370.265,387.831,363.159,393.091,360.951,394.567z"/>
		<path style="fill:#FFC1A9;" d="M358.696,394.362c-1.19-1.084-2.523-1.989-3.961-2.667c0.85-1.011,1.661-1.958,2.062-2.645
			c1.554-2.66-1.067-4.945-1.067-4.945c-3.914-1.97,0.984-9.616,6.329-2.449C365.415,386.156,361.829,391.216,358.696,394.362z"/>
		<path style="fill:#FFC1A9;" d="M351.053,390.539c0.711-0.891,1.382-1.723,1.717-2.332c1.33-2.412-0.942-4.504-0.942-4.504
			c-3.386-1.811,0.809-8.743,5.451-2.197c2.587,3.647,0.457,7.667-1.936,10.515C354.002,391.313,352.562,390.808,351.053,390.539z"
			/>
	</g>
	<g>
		<rect x="434.333" y="306.199" style="fill:#594F4D;" width="22.333" height="14.801"/>
		<g>
			<path d="M419.392,305.579c-5.058,0-9.173-4.115-9.173-9.173v-10.773c0-5.059,4.115-9.174,9.173-9.174H469.2
				c5.058,0,9.173,4.115,9.173,9.174v10.773c0,5.058-4.115,9.173-9.173,9.173H419.392z"/>
			<g>
				<path style="fill:#776F6D;" d="M469.2,278.959c3.68,0,6.674,2.994,6.674,6.674v10.773c0,3.68-2.994,6.674-6.674,6.674h-49.808
					c-3.68,0-6.674-2.994-6.674-6.674v-10.773c0-3.68,2.994-6.674,6.674-6.674H469.2 M469.2,273.959h-49.808
					c-6.447,0-11.674,5.227-11.674,11.674v10.773c0,6.447,5.226,11.674,11.674,11.674H469.2c6.447,0,11.674-5.227,11.674-11.674
					v-10.773C480.873,279.185,475.647,273.959,469.2,273.959L469.2,273.959z"/>
			</g>
		</g>
		<path style="fill:#776F6D;" d="M494.744,407.035c0,5.523-4.477,10-10,10h-83.667c-5.523,0-10-4.477-10-10v-79.368
			c0-5.523,4.477-10,10-10h83.667c5.523,0,10,4.477,10,10V407.035z"/>
		<path style="fill:#594F4D;" d="M484.744,317.667h-15.256c5.523,0,10,4.477,10,10v79.368c0,5.523-4.477,10-10,10h15.256
			c5.523,0,10-4.477,10-10v-79.368C494.744,322.144,490.267,317.667,484.744,317.667z"/>
		<rect x="416.796" y="345.792" style="fill:#594F4D;" width="49" height="7.094"/>
		<rect x="419.667" y="347.607" width="43.667" height="1.813"/>
		<rect x="421.873" y="348.42" style="fill:#FFF4D4;" width="38.845" height="34.71"/>
		<rect x="425.667" y="355.284" style="opacity:0.4;fill:#594F4D;" width="31" height="1.151"/>
		<rect x="425.667" y="363.486" style="opacity:0.4;fill:#594F4D;" width="31" height="1.151"/>
		<rect x="425.667" y="371.687" style="opacity:0.4;fill:#594F4D;" width="31" height="1.151"/>
		<g style="opacity:0.8;">
			<path style="fill:#FFFFFF;" d="M429.28,289.738c-0.444-0.231-0.777-0.544-1.001-0.942c-0.224-0.397-0.337-0.875-0.337-1.435
				c0-0.905,0.257-1.625,0.77-2.161c0.514-0.536,1.205-0.805,2.075-0.805c0.922,0,1.625,0.287,2.107,0.86
				c0.482,0.573,0.723,1.268,0.723,2.09c0,0.559-0.117,1.044-0.35,1.454c-0.233,0.411-0.552,0.723-0.955,0.938
				c0.54,0.262,0.943,0.63,1.211,1.103c0.267,0.474,0.401,1.057,0.401,1.749c0,0.712-0.132,1.34-0.397,1.885
				c-0.265,0.545-0.63,0.96-1.097,1.249c-0.466,0.288-0.991,0.432-1.572,0.432c-0.912,0-1.665-0.316-2.26-0.947
				c-0.595-0.63-0.892-1.48-0.892-2.548c0-0.692,0.136-1.287,0.408-1.784C428.385,290.38,428.773,290,429.28,289.738z
				 M429.483,292.45c0,0.617,0.131,1.093,0.394,1.428c0.262,0.334,0.578,0.502,0.946,0.502s0.677-0.16,0.926-0.478
				c0.25-0.32,0.375-0.798,0.375-1.436c0-0.549-0.127-0.983-0.383-1.302c-0.255-0.318-0.569-0.478-0.942-0.478
				c-0.368,0-0.68,0.161-0.934,0.482C429.61,291.49,429.483,291.917,429.483,292.45z M429.656,287.517
				c0,0.448,0.106,0.793,0.318,1.033c0.212,0.24,0.481,0.359,0.806,0.359c0.33,0,0.603-0.119,0.818-0.359
				c0.215-0.24,0.322-0.584,0.322-1.033c0-0.432-0.106-0.768-0.318-1.009c-0.212-0.238-0.478-0.359-0.798-0.359
				c-0.335,0-0.61,0.122-0.825,0.363C429.763,286.754,429.656,287.09,429.656,287.517z"/>
			<path style="fill:#FFFFFF;" d="M435.41,293.751h1.808v1.58c0,0.896-0.105,1.562-0.314,1.997c-0.257,0.54-0.687,0.941-1.289,1.203
				l-0.354-0.912c0.356-0.147,0.613-0.345,0.77-0.594c0.157-0.249,0.241-0.604,0.251-1.065h-0.873V293.751z"/>
			<path style="fill:#FFFFFF;" d="M438.767,292.996l1.808-0.236c0.047,0.503,0.202,0.899,0.464,1.187
				c0.262,0.288,0.55,0.432,0.865,0.432c0.372,0,0.692-0.185,0.959-0.553c0.267-0.37,0.401-0.935,0.401-1.699
				c0-0.722-0.132-1.255-0.398-1.601c-0.265-0.345-0.601-0.518-1.012-0.518c-0.52,0-0.987,0.28-1.402,0.841l-1.473-0.259
				l0.928-5.998h4.788v2.068h-3.405l-0.295,1.957c0.409-0.246,0.824-0.37,1.243-0.37c0.746,0,1.377,0.293,1.897,0.88
				c0.656,0.749,0.984,1.737,0.984,2.964c0,1.011-0.279,1.942-0.837,2.791c-0.558,0.849-1.356,1.273-2.394,1.273
				c-0.839,0-1.539-0.274-2.103-0.822C439.221,294.787,438.882,294.008,438.767,292.996z"/>
			<path style="fill:#FFFFFF;" d="M449.144,284.396c0.917,0,1.659,0.436,2.225,1.308c0.566,0.873,0.849,2.398,0.849,4.577
				c0,2.174-0.283,3.696-0.849,4.569c-0.566,0.871-1.305,1.308-2.217,1.308c-0.917,0-1.659-0.432-2.225-1.296
				c-0.566-0.865-0.849-2.399-0.849-4.604c0-2.163,0.283-3.68,0.849-4.553C447.493,284.832,448.232,284.396,449.144,284.396z
				 M449.148,286.228c-0.358,0-0.643,0.236-0.856,0.707c-0.214,0.47-0.32,1.585-0.32,3.345c0,1.76,0.106,2.873,0.32,3.342
				c0.212,0.468,0.498,0.702,0.856,0.702c0.363,0,0.65-0.236,0.859-0.706c0.211-0.472,0.316-1.584,0.316-3.338
				c0-1.76-0.105-2.875-0.316-3.345C449.797,286.464,449.51,286.228,449.148,286.228z"/>
			<path style="fill:#FFFFFF;" d="M459.693,294.254v-3.294c-1.63-0.566-2.445-1.732-2.445-3.498c0-0.901,0.229-1.635,0.688-2.201
				c0.458-0.566,1.044-0.891,1.757-0.975v-0.778h0.928v0.778c0.665,0.099,1.205,0.379,1.619,0.837
				c0.414,0.459,0.676,1.091,0.786,1.898l-1.627,0.259c-0.1-0.624-0.359-1.043-0.778-1.258v3.074c1.001,0.33,1.68,0.736,2.036,1.219
				c0.424,0.576,0.637,1.308,0.637,2.193c0,0.985-0.241,1.795-0.723,2.429c-0.482,0.634-1.132,1.022-1.949,1.164v1.47h-0.928v-1.431
				c-1.546-0.225-2.447-1.363-2.704-3.412l1.682-0.22c0.068,0.414,0.197,0.774,0.385,1.081
				C459.245,293.896,459.458,294.118,459.693,294.254z M459.693,286c-0.241,0.1-0.44,0.273-0.597,0.519
				c-0.157,0.246-0.236,0.519-0.236,0.818c0,0.629,0.278,1.09,0.833,1.384V286z M460.621,294.364
				c0.314-0.068,0.575-0.245,0.782-0.531c0.207-0.286,0.31-0.63,0.31-1.034c0-0.744-0.364-1.245-1.093-1.501V294.364z"/>
		</g>
	</g>
	<g>
		<rect x="0" y="408.363" style="fill:#F8C001;" width="500" height="17.344"/>
		<rect x="0" y="415.064" style="fill:#D39C00;" width="500" height="10.642"/>
		<rect x="0" y="425.707" style="fill:#B22F2B;" width="500" height="74.293"/>
		<rect x="0" y="425.707" style="opacity:0.2;" width="500" height="21.293"/>
	</g>
</g>
<g id="designed_by_freepik">
	<g>
		<g>
			<path style="fill:#B22F2B;" d="M156.068,44.623l0-0.216c-0.293,0.336-0.582,0.611-0.867,0.821
				c-0.285,0.212-0.594,0.373-0.928,0.482c-0.333,0.112-0.696,0.166-1.091,0.166c-0.523,0.001-1.008-0.109-1.453-0.329
				c-0.445-0.22-0.831-0.537-1.157-0.947c-0.327-0.41-0.574-0.892-0.743-1.447c-0.169-0.555-0.254-1.155-0.255-1.799
				c-0.002-1.366,0.329-2.431,0.995-3.195c0.666-0.763,1.542-1.146,2.631-1.148c0.629-0.001,1.16,0.107,1.592,0.321
				c0.433,0.216,0.854,0.548,1.266,0.994l-0.006-3.224c-0.001-0.448,0.087-0.787,0.266-1.016c0.178-0.23,0.432-0.345,0.763-0.345
				c0.331-0.001,0.585,0.104,0.764,0.315c0.179,0.211,0.269,0.52,0.27,0.932l0.016,9.633c0.001,0.416-0.094,0.728-0.286,0.937
				c-0.192,0.208-0.439,0.313-0.744,0.313c-0.299,0.001-0.546-0.107-0.741-0.322C156.166,45.33,156.069,45.022,156.068,44.623z
				 M151.766,41.421c0.001,0.592,0.094,1.096,0.279,1.512c0.185,0.416,0.437,0.729,0.758,0.938c0.321,0.211,0.67,0.316,1.049,0.316
				c0.384-0.001,0.734-0.102,1.052-0.303c0.317-0.2,0.57-0.508,0.758-0.92c0.189-0.414,0.282-0.932,0.281-1.549
				c-0.001-0.582-0.096-1.082-0.286-1.501c-0.19-0.418-0.446-0.737-0.77-0.959c-0.323-0.22-0.677-0.33-1.061-0.329
				c-0.4,0.001-0.757,0.115-1.072,0.342c-0.314,0.227-0.558,0.552-0.73,0.977C151.85,40.369,151.765,40.861,151.766,41.421z"/>
			<path style="fill:#B22F2B;" d="M165.695,41.951l-4.272,0.007c0.006,0.495,0.106,0.933,0.302,1.311
				c0.195,0.379,0.454,0.664,0.777,0.855c0.323,0.192,0.68,0.286,1.069,0.285c0.261,0,0.5-0.03,0.716-0.092
				c0.216-0.063,0.425-0.158,0.628-0.29c0.203-0.13,0.389-0.271,0.559-0.421c0.17-0.15,0.391-0.354,0.663-0.61
				c0.112-0.096,0.272-0.144,0.481-0.145c0.224,0,0.405,0.062,0.543,0.184c0.139,0.123,0.21,0.295,0.21,0.52
				c0,0.197-0.077,0.427-0.231,0.692c-0.156,0.264-0.388,0.518-0.699,0.761c-0.313,0.243-0.703,0.445-1.176,0.606
				c-0.471,0.161-1.014,0.242-1.628,0.243c-1.402,0.002-2.494-0.396-3.274-1.195c-0.78-0.798-1.171-1.884-1.173-3.254
				c-0.001-0.646,0.093-1.245,0.285-1.796c0.191-0.553,0.471-1.027,0.837-1.422c0.367-0.395,0.82-0.698,1.359-0.91
				c0.538-0.212,1.136-0.317,1.792-0.318c0.853-0.001,1.586,0.176,2.196,0.536c0.612,0.358,1.071,0.823,1.375,1.393
				c0.304,0.57,0.458,1.153,0.459,1.743c0.001,0.55-0.156,0.906-0.47,1.07C166.71,41.867,166.267,41.95,165.695,41.951z
				 M161.421,40.717l3.961-0.007c-0.054-0.747-0.258-1.306-0.607-1.676c-0.35-0.37-0.81-0.555-1.381-0.554
				c-0.544,0.001-0.991,0.189-1.339,0.566C161.706,39.424,161.495,39.981,161.421,40.717z"/>
			<path style="fill:#B22F2B;" d="M175.65,42.98c0.001,0.603-0.144,1.12-0.438,1.55c-0.292,0.43-0.725,0.757-1.298,0.979
				c-0.573,0.222-1.27,0.334-2.092,0.335c-0.784,0.001-1.456-0.118-2.017-0.357c-0.56-0.238-0.975-0.539-1.241-0.897
				c-0.268-0.361-0.401-0.721-0.402-1.084c0-0.24,0.084-0.445,0.255-0.616c0.17-0.17,0.386-0.257,0.648-0.257
				c0.229,0,0.404,0.055,0.528,0.167c0.123,0.112,0.241,0.27,0.353,0.471c0.225,0.39,0.494,0.679,0.807,0.871
				c0.312,0.191,0.737,0.287,1.277,0.286c0.437-0.001,0.796-0.099,1.076-0.294c0.279-0.196,0.419-0.419,0.418-0.67
				c-0.001-0.384-0.146-0.663-0.438-0.838c-0.291-0.176-0.77-0.343-1.437-0.503c-0.752-0.185-1.365-0.38-1.837-0.585
				c-0.473-0.203-0.85-0.474-1.133-0.809c-0.283-0.336-0.425-0.75-0.426-1.24c-0.001-0.437,0.129-0.851,0.39-1.241
				c0.261-0.389,0.646-0.7,1.156-0.933c0.508-0.234,1.122-0.351,1.843-0.352c0.566-0.001,1.074,0.057,1.524,0.174
				c0.452,0.115,0.829,0.273,1.13,0.47c0.302,0.196,0.531,0.414,0.689,0.654c0.158,0.24,0.236,0.474,0.237,0.705
				c0,0.25-0.083,0.456-0.25,0.617c-0.168,0.159-0.406,0.241-0.716,0.241c-0.224,0-0.415-0.063-0.572-0.192
				c-0.157-0.127-0.338-0.319-0.541-0.574c-0.166-0.213-0.36-0.384-0.585-0.512c-0.224-0.128-0.529-0.191-0.913-0.19
				c-0.395,0.001-0.722,0.084-0.984,0.254c-0.261,0.167-0.391,0.377-0.391,0.627c0,0.23,0.096,0.418,0.288,0.564
				c0.193,0.147,0.451,0.268,0.778,0.363c0.326,0.095,0.773,0.211,1.345,0.349c0.677,0.165,1.231,0.362,1.661,0.59
				c0.429,0.228,0.755,0.499,0.978,0.811C175.538,42.225,175.649,42.58,175.65,42.98z"/>
			<path style="fill:#B22F2B;" d="M177.869,35.937c-0.304,0.001-0.564-0.093-0.78-0.279c-0.216-0.186-0.325-0.449-0.326-0.792
				c-0.001-0.31,0.11-0.564,0.331-0.765c0.221-0.201,0.479-0.301,0.772-0.302c0.283,0,0.534,0.09,0.752,0.271
				c0.219,0.181,0.329,0.444,0.33,0.792c0.001,0.336-0.106,0.599-0.319,0.789C178.416,35.84,178.163,35.936,177.869,35.937z
				 M178.954,38.191l0.011,6.312c0.001,0.438-0.103,0.769-0.311,0.993c-0.208,0.224-0.471,0.336-0.792,0.337
				c-0.32,0-0.581-0.113-0.781-0.343c-0.201-0.229-0.301-0.557-0.301-0.984l-0.011-6.249c-0.001-0.431,0.098-0.757,0.298-0.976
				c0.2-0.219,0.459-0.329,0.78-0.33c0.32-0.001,0.584,0.108,0.793,0.327C178.849,37.497,178.953,37.802,178.954,38.191z"/>
			<path style="fill:#B22F2B;" d="M188.523,38.535l0.011,6.344c0.001,0.725-0.076,1.35-0.23,1.874
				c-0.153,0.522-0.4,0.955-0.742,1.297c-0.341,0.341-0.787,0.596-1.338,0.762c-0.552,0.167-1.238,0.251-2.06,0.252
				c-0.752,0.001-1.424-0.103-2.017-0.313c-0.592-0.211-1.048-0.481-1.37-0.814c-0.32-0.333-0.482-0.675-0.482-1.028
				c0-0.267,0.09-0.485,0.272-0.652c0.181-0.169,0.4-0.253,0.655-0.254c0.32,0,0.6,0.14,0.841,0.422
				c0.117,0.144,0.239,0.29,0.365,0.436c0.126,0.147,0.265,0.272,0.417,0.376c0.152,0.103,0.335,0.18,0.548,0.23
				c0.214,0.049,0.46,0.075,0.736,0.074c0.566-0.001,1.004-0.08,1.316-0.238c0.312-0.158,0.53-0.378,0.655-0.662
				c0.125-0.282,0.198-0.584,0.219-0.908c0.021-0.323,0.036-0.842,0.045-1.557c-0.336,0.471-0.722,0.83-1.163,1.076
				c-0.439,0.246-0.964,0.369-1.571,0.37c-0.731,0.001-1.37-0.184-1.918-0.557c-0.547-0.373-0.968-0.894-1.262-1.566
				c-0.295-0.672-0.442-1.447-0.444-2.327c-0.001-0.656,0.087-1.249,0.264-1.777c0.178-0.529,0.432-0.975,0.762-1.338
				c0.33-0.363,0.711-0.637,1.142-0.822c0.432-0.184,0.906-0.277,1.424-0.278c0.618-0.001,1.155,0.117,1.609,0.353
				c0.453,0.238,0.876,0.609,1.266,1.115l0-0.297c-0.001-0.378,0.092-0.671,0.278-0.881c0.187-0.208,0.427-0.313,0.72-0.313
				c0.421-0.001,0.701,0.137,0.84,0.411C188.452,37.621,188.522,38.017,188.523,38.535z M182.199,41.314
				c0.001,0.885,0.195,1.555,0.583,2.007c0.387,0.453,0.888,0.679,1.502,0.678c0.362-0.001,0.705-0.099,1.027-0.294
				c0.323-0.195,0.585-0.49,0.787-0.882c0.201-0.393,0.302-0.868,0.302-1.429c-0.001-0.89-0.199-1.584-0.592-2.079
				c-0.393-0.495-0.91-0.743-1.55-0.742c-0.624,0.001-1.124,0.24-1.498,0.715C182.384,39.764,182.197,40.439,182.199,41.314z"/>
			<path style="fill:#B22F2B;" d="M191.994,38.137l0,0.264c0.383-0.507,0.802-0.88,1.258-1.118c0.456-0.238,0.979-0.358,1.572-0.359
				c0.576-0.001,1.091,0.124,1.545,0.374c0.453,0.25,0.794,0.604,1.017,1.061c0.145,0.267,0.239,0.556,0.282,0.864
				c0.043,0.31,0.066,0.704,0.067,1.184l0.007,4.064c0.001,0.438-0.099,0.769-0.299,0.993c-0.2,0.224-0.459,0.336-0.779,0.337
				c-0.326,0-0.59-0.113-0.793-0.343c-0.204-0.229-0.305-0.557-0.306-0.984l-0.006-3.64c-0.001-0.72-0.103-1.271-0.303-1.651
				c-0.201-0.381-0.599-0.572-1.198-0.571c-0.389,0.001-0.743,0.117-1.063,0.35c-0.32,0.233-0.554,0.553-0.702,0.958
				c-0.106,0.326-0.158,0.933-0.157,1.824l0.005,2.736c0.001,0.443-0.102,0.776-0.306,0.998c-0.205,0.222-0.47,0.332-0.795,0.333
				c-0.315,0-0.574-0.113-0.777-0.343c-0.203-0.229-0.305-0.557-0.306-0.984l-0.011-6.312c-0.001-0.416,0.089-0.728,0.27-0.933
				c0.181-0.205,0.429-0.308,0.743-0.309c0.192,0,0.366,0.045,0.521,0.136c0.154,0.091,0.279,0.227,0.372,0.407
				C191.947,37.654,191.993,37.876,191.994,38.137z"/>
			<path style="fill:#B22F2B;" d="M205.289,41.883l-4.272,0.007c0.007,0.495,0.107,0.933,0.303,1.311
				c0.195,0.379,0.454,0.664,0.778,0.855c0.322,0.192,0.679,0.286,1.068,0.285c0.262,0,0.5-0.031,0.717-0.092
				c0.215-0.063,0.424-0.158,0.628-0.29c0.202-0.13,0.388-0.271,0.559-0.421c0.17-0.15,0.391-0.354,0.663-0.61
				c0.112-0.096,0.272-0.145,0.48-0.145c0.224,0,0.406,0.062,0.545,0.184c0.139,0.123,0.208,0.295,0.209,0.52
				c0,0.198-0.076,0.427-0.231,0.692c-0.155,0.264-0.387,0.518-0.699,0.761c-0.312,0.243-0.703,0.444-1.175,0.606
				c-0.472,0.161-1.015,0.242-1.628,0.243c-1.403,0.002-2.494-0.396-3.275-1.195c-0.779-0.798-1.171-1.884-1.173-3.254
				c-0.001-0.646,0.094-1.245,0.285-1.796c0.191-0.553,0.471-1.027,0.838-1.422c0.367-0.396,0.82-0.698,1.358-0.91
				c0.538-0.212,1.136-0.317,1.792-0.318c0.853-0.001,1.585,0.176,2.196,0.536c0.612,0.358,1.07,0.823,1.375,1.393
				c0.305,0.57,0.458,1.153,0.459,1.743c0.001,0.55-0.156,0.906-0.47,1.07C206.303,41.799,205.86,41.882,205.289,41.883z
				 M201.014,40.65l3.96-0.007c-0.054-0.747-0.257-1.306-0.607-1.676c-0.35-0.37-0.81-0.555-1.381-0.554
				c-0.545,0.001-0.991,0.189-1.34,0.566C201.298,39.356,201.088,39.914,201.014,40.65z"/>
			<path style="fill:#B22F2B;" d="M214.197,44.524l0-0.216c-0.293,0.336-0.581,0.611-0.867,0.821
				c-0.285,0.212-0.594,0.373-0.927,0.482c-0.333,0.112-0.697,0.166-1.091,0.166c-0.524,0.001-1.007-0.108-1.453-0.329
				c-0.446-0.221-0.832-0.537-1.158-0.947c-0.327-0.41-0.574-0.892-0.743-1.447c-0.169-0.555-0.254-1.155-0.255-1.799
				c-0.002-1.366,0.329-2.432,0.995-3.195c0.665-0.763,1.543-1.146,2.63-1.148c0.629-0.001,1.161,0.107,1.593,0.321
				c0.432,0.216,0.854,0.548,1.265,0.994l-0.005-3.224c-0.001-0.448,0.088-0.787,0.267-1.016c0.178-0.23,0.433-0.345,0.764-0.345
				c0.33-0.001,0.585,0.104,0.764,0.315c0.179,0.211,0.269,0.52,0.27,0.932l0.016,9.633c0.001,0.416-0.094,0.728-0.286,0.937
				c-0.192,0.208-0.439,0.313-0.744,0.313c-0.299,0-0.546-0.107-0.741-0.322C214.296,45.231,214.198,44.924,214.197,44.524z
				 M209.896,41.323c0.001,0.592,0.093,1.096,0.278,1.512c0.185,0.416,0.437,0.729,0.758,0.938c0.32,0.211,0.67,0.317,1.048,0.316
				c0.385-0.001,0.735-0.102,1.052-0.303c0.317-0.2,0.57-0.508,0.759-0.92c0.189-0.414,0.283-0.932,0.282-1.549
				c-0.001-0.582-0.096-1.082-0.287-1.501c-0.19-0.417-0.446-0.737-0.77-0.959c-0.324-0.22-0.677-0.329-1.061-0.329
				c-0.399,0.001-0.757,0.115-1.071,0.342c-0.314,0.227-0.558,0.552-0.73,0.977C209.98,40.27,209.895,40.763,209.896,41.323z"/>
			<path style="fill:#B22F2B;" d="M223.109,34.875l0.006,3.336c0.41-0.427,0.828-0.755,1.255-0.982
				c0.426-0.227,0.954-0.341,1.584-0.342c0.725-0.001,1.361,0.17,1.909,0.512c0.546,0.345,0.971,0.842,1.274,1.495
				c0.302,0.652,0.455,1.427,0.456,2.324c0.001,0.661-0.082,1.267-0.249,1.82c-0.167,0.552-0.411,1.032-0.73,1.437
				c-0.32,0.406-0.707,0.721-1.162,0.943c-0.456,0.222-0.959,0.333-1.508,0.334c-0.337,0.001-0.653-0.038-0.948-0.118
				c-0.297-0.079-0.549-0.183-0.757-0.315c-0.208-0.13-0.385-0.264-0.533-0.403c-0.147-0.138-0.341-0.347-0.581-0.623l0,0.216
				c0.001,0.41-0.097,0.722-0.295,0.933c-0.196,0.211-0.447,0.316-0.751,0.316c-0.309,0.001-0.556-0.104-0.741-0.314
				c-0.185-0.211-0.277-0.522-0.278-0.932l-0.016-9.538c-0.001-0.443,0.088-0.778,0.266-1.004c0.179-0.227,0.428-0.34,0.748-0.341
				c0.337,0,0.595,0.107,0.777,0.322C223.017,34.168,223.108,34.475,223.109,34.875z M223.224,41.364
				c0.001,0.87,0.201,1.536,0.6,2.002c0.398,0.467,0.92,0.7,1.565,0.699c0.549-0.001,1.023-0.24,1.419-0.719
				c0.397-0.479,0.594-1.163,0.593-2.054c-0.001-0.576-0.084-1.073-0.25-1.488c-0.167-0.416-0.401-0.737-0.705-0.963
				c-0.305-0.226-0.66-0.339-1.065-0.338c-0.416,0.001-0.787,0.115-1.112,0.342c-0.325,0.227-0.58,0.555-0.767,0.985
				C223.316,40.26,223.223,40.772,223.224,41.364z"/>
			<path style="fill:#B22F2B;" d="M232.433,46.013l0.199-0.489l-2.7-6.764c-0.166-0.388-0.25-0.672-0.25-0.848
				c0-0.187,0.048-0.36,0.143-0.519c0.096-0.161,0.227-0.289,0.395-0.385c0.168-0.097,0.343-0.145,0.524-0.146
				c0.314-0.001,0.552,0.099,0.713,0.299c0.161,0.2,0.302,0.486,0.425,0.859l1.858,5.374l1.744-5.004
				c0.138-0.404,0.262-0.723,0.374-0.952c0.112-0.23,0.23-0.385,0.355-0.464c0.125-0.081,0.303-0.121,0.532-0.122
				c0.166,0,0.324,0.043,0.477,0.132c0.152,0.088,0.269,0.206,0.352,0.356c0.082,0.149,0.125,0.306,0.125,0.471
				c-0.022,0.101-0.056,0.245-0.104,0.433c-0.048,0.186-0.106,0.377-0.175,0.568l-2.836,7.462c-0.245,0.656-0.484,1.171-0.718,1.545
				c-0.234,0.374-0.544,0.662-0.931,0.862c-0.387,0.201-0.908,0.302-1.564,0.303c-0.64,0.001-1.12-0.067-1.44-0.205
				c-0.321-0.139-0.481-0.392-0.482-0.76c0-0.25,0.074-0.444,0.227-0.58c0.151-0.136,0.377-0.206,0.675-0.206
				c0.118,0,0.233,0.016,0.345,0.049c0.139,0.031,0.258,0.047,0.359,0.047c0.251,0,0.448-0.038,0.593-0.114
				c0.143-0.074,0.272-0.204,0.387-0.389C232.152,46.642,232.284,46.37,232.433,46.013z"/>
		</g>
		<g>
			<path style="fill:#B22F2B;" d="M264.061,36.995l0.521-0.001l-0.001-0.656c-0.001-0.686,0.082-1.228,0.255-1.633
				c0.171-0.403,0.467-0.697,0.88-0.882c0.413-0.183,0.979-0.277,1.698-0.278c1.28-0.002,1.915,0.306,1.916,0.935
				c0,0.201-0.066,0.374-0.202,0.519c-0.13,0.143-0.288,0.216-0.47,0.216c-0.084,0-0.234-0.015-0.444-0.049
				c-0.2-0.028-0.381-0.046-0.525-0.046c-0.394,0.001-0.646,0.119-0.762,0.351c-0.107,0.232-0.164,0.564-0.163,0.998l0.001,0.52
				l0.533-0.001c0.835-0.001,1.248,0.248,1.249,0.752c0.001,0.353-0.106,0.582-0.33,0.678c-0.22,0.097-0.525,0.145-0.917,0.146
				l-0.533,0.001l0.01,5.788c0.001,0.43-0.1,0.759-0.309,0.984c-0.203,0.23-0.466,0.343-0.793,0.344
				c-0.309,0-0.565-0.112-0.774-0.341c-0.206-0.225-0.308-0.553-0.309-0.983l-0.01-5.788l-0.601,0.001
				c-0.327,0-0.575-0.07-0.753-0.219c-0.176-0.144-0.266-0.336-0.266-0.57C262.963,37.256,263.329,36.996,264.061,36.995"/>
			<path style="fill:#B22F2B;" d="M271.222,42.521l0.003,1.826c0.001,0.441-0.111,0.774-0.313,0.994
				c-0.208,0.224-0.47,0.333-0.789,0.334c-0.322,0.001-0.579-0.109-0.781-0.336c-0.199-0.222-0.304-0.552-0.305-0.988l-0.01-6.084
				c-0.002-0.982,0.351-1.474,1.06-1.475c0.365-0.001,0.626,0.112,0.787,0.343c0.16,0.23,0.249,0.567,0.269,1.017
				c0.258-0.451,0.524-0.788,0.797-1.019c0.279-0.231,0.642-0.345,1.103-0.346c0.462-0.001,0.904,0.112,1.336,0.342
				c0.435,0.23,0.651,0.535,0.651,0.913c0,0.265-0.092,0.489-0.274,0.659c-0.185,0.176-0.382,0.263-0.594,0.263
				c-0.084,0-0.279-0.052-0.584-0.15c-0.308-0.095-0.58-0.145-0.811-0.144c-0.32,0.001-0.583,0.087-0.784,0.252
				c-0.204,0.173-0.362,0.419-0.474,0.748c-0.108,0.333-0.183,0.729-0.228,1.183C271.239,41.308,271.221,41.865,271.222,42.521"/>
			<path style="fill:#B22F2B;" d="M281.263,41.752l-4.275,0.007c0.008,0.495,0.106,0.935,0.301,1.313
				c0.199,0.376,0.456,0.661,0.78,0.855c0.324,0.191,0.678,0.285,1.069,0.285c0.262,0,0.499-0.029,0.715-0.095
				c0.214-0.059,0.425-0.157,0.627-0.288c0.204-0.129,0.387-0.269,0.559-0.422c0.17-0.148,0.393-0.351,0.665-0.607
				c0.113-0.096,0.273-0.147,0.479-0.147c0.226,0,0.406,0.062,0.547,0.186c0.14,0.124,0.205,0.295,0.206,0.52
				c0,0.198-0.074,0.428-0.224,0.691c-0.158,0.268-0.389,0.52-0.703,0.765c-0.315,0.241-0.706,0.445-1.176,0.603
				c-0.471,0.161-1.016,0.243-1.627,0.244c-1.408,0.002-2.498-0.394-3.276-1.192c-0.78-0.801-1.176-1.887-1.178-3.257
				c-0.001-0.646,0.097-1.246,0.29-1.799c0.188-0.555,0.468-1.025,0.839-1.423c0.366-0.397,0.816-0.699,1.357-0.911
				c0.537-0.211,1.134-0.317,1.792-0.318c0.852-0.001,1.585,0.177,2.197,0.54c0.61,0.355,1.074,0.821,1.375,1.391
				c0.305,0.573,0.458,1.152,0.459,1.747c0.001,0.546-0.157,0.902-0.471,1.067C282.275,41.669,281.834,41.751,281.263,41.752
				 M276.986,40.517l3.96-0.007c-0.054-0.745-0.253-1.305-0.604-1.672c-0.353-0.372-0.809-0.555-1.383-0.554
				c-0.544,0.001-0.991,0.187-1.34,0.566C277.271,39.227,277.058,39.782,276.986,40.517"/>
			<path style="fill:#B22F2B;" d="M290.35,41.737l-4.274,0.007c0.006,0.495,0.107,0.935,0.301,1.312
				c0.196,0.376,0.455,0.661,0.777,0.855c0.323,0.191,0.679,0.285,1.072,0.285c0.259,0,0.499-0.029,0.711-0.095
				c0.218-0.059,0.426-0.157,0.631-0.288c0.204-0.129,0.387-0.269,0.559-0.422c0.168-0.148,0.39-0.351,0.663-0.607
				c0.113-0.096,0.275-0.147,0.479-0.147c0.226,0,0.407,0.062,0.548,0.186c0.139,0.124,0.203,0.295,0.203,0.52
				c0,0.198-0.073,0.428-0.229,0.691c-0.148,0.268-0.383,0.52-0.698,0.765c-0.311,0.241-0.707,0.445-1.174,0.603
				c-0.469,0.161-1.017,0.243-1.629,0.244c-1.404,0.002-2.493-0.394-3.276-1.192c-0.779-0.801-1.173-1.887-1.175-3.257
				c-0.001-0.646,0.096-1.246,0.29-1.799c0.19-0.555,0.469-1.025,0.837-1.423c0.366-0.397,0.818-0.699,1.358-0.911
				c0.537-0.211,1.137-0.317,1.793-0.318c0.85-0.002,1.582,0.177,2.202,0.54c0.607,0.355,1.068,0.821,1.368,1.391
				c0.304,0.573,0.461,1.152,0.462,1.747c0.001,0.546-0.16,0.902-0.471,1.067C291.361,41.653,290.919,41.736,290.35,41.737
				 M286.074,40.502l3.96-0.007c-0.055-0.745-0.258-1.305-0.605-1.672c-0.355-0.372-0.811-0.555-1.385-0.554
				c-0.544,0.001-0.99,0.187-1.341,0.566C286.357,39.211,286.144,39.766,286.074,40.502"/>
			<path style="fill:#B22F2B;" d="M295.128,37.978l0.001,0.262c0.409-0.507,0.836-0.879,1.282-1.118
				c0.436-0.24,0.941-0.361,1.501-0.362c0.67-0.001,1.293,0.173,1.86,0.517c0.566,0.348,1.011,0.854,1.341,1.52
				c0.329,0.669,0.496,1.456,0.498,2.369c0.001,0.67-0.092,1.29-0.28,1.855c-0.187,0.563-0.451,1.034-0.78,1.416
				c-0.331,0.38-0.72,0.677-1.169,0.883c-0.456,0.204-0.936,0.308-1.455,0.309c-0.622,0.001-1.149-0.123-1.572-0.374
				c-0.424-0.245-0.829-0.616-1.216-1.098l0.006,3.279c0.002,0.957-0.348,1.441-1.046,1.442c-0.413,0.001-0.681-0.122-0.819-0.369
				c-0.128-0.251-0.198-0.609-0.198-1.087l-0.016-9.429c-0.001-0.417,0.088-0.724,0.268-0.933c0.181-0.202,0.431-0.307,0.745-0.308
				c0.311-0.001,0.561,0.104,0.755,0.314C295.031,37.278,295.128,37.578,295.128,37.978 M299.416,41.145
				c-0.001-0.577-0.091-1.073-0.267-1.484c-0.177-0.414-0.422-0.73-0.731-0.949c-0.31-0.221-0.66-0.333-1.039-0.332
				c-0.601,0.001-1.11,0.241-1.522,0.713c-0.414,0.478-0.621,1.177-0.619,2.101c0.001,0.865,0.208,1.544,0.623,2.026
				c0.411,0.482,0.916,0.722,1.528,0.721c0.361-0.001,0.699-0.107,1.008-0.315c0.312-0.214,0.559-0.529,0.743-0.951
				C299.324,42.251,299.417,41.741,299.416,41.145"/>
			<path style="fill:#B22F2B;" d="M303.801,35.717c-0.305,0-0.564-0.095-0.778-0.281c-0.219-0.187-0.327-0.448-0.328-0.788
				c-0.001-0.31,0.109-0.565,0.333-0.767c0.22-0.198,0.477-0.3,0.77-0.301c0.286,0,0.536,0.089,0.753,0.268
				c0.219,0.184,0.33,0.449,0.33,0.797c0.001,0.337-0.106,0.599-0.317,0.789C304.35,35.62,304.097,35.717,303.801,35.717
				 M304.887,37.972l0.011,6.32c0.001,0.434-0.103,0.765-0.31,0.988c-0.21,0.227-0.472,0.338-0.793,0.339
				c-0.321,0.001-0.577-0.112-0.782-0.341c-0.197-0.233-0.3-0.56-0.301-0.982l-0.011-6.257c-0.001-0.43,0.102-0.754,0.298-0.973
				c0.204-0.223,0.46-0.331,0.781-0.331c0.321-0.001,0.583,0.106,0.794,0.329C304.781,37.281,304.886,37.586,304.887,37.972"/>
			<path style="fill:#B22F2B;" d="M311.94,44.607l-1.93-3.169l-1.184,1.121l0.003,1.74c0.001,0.42-0.111,0.743-0.332,0.969
				c-0.216,0.23-0.477,0.343-0.763,0.343c-0.336,0.001-0.602-0.109-0.793-0.336c-0.191-0.222-0.29-0.552-0.291-0.988l-0.016-9.32
				c-0.001-0.483,0.095-0.852,0.277-1.107c0.187-0.257,0.458-0.382,0.802-0.382c0.336-0.001,0.601,0.114,0.8,0.345
				c0.198,0.227,0.299,0.567,0.299,1.012l0.009,5.301l2.452-2.584c0.305-0.317,0.532-0.54,0.696-0.657
				c0.159-0.117,0.353-0.176,0.581-0.176c0.275,0,0.5,0.086,0.687,0.259c0.178,0.173,0.271,0.392,0.271,0.651
				c0.001,0.319-0.297,0.749-0.886,1.283l-1.158,1.066l2.246,3.52c0.163,0.264,0.286,0.458,0.358,0.594
				c0.071,0.134,0.11,0.269,0.11,0.389c0.001,0.348-0.095,0.619-0.286,0.822c-0.189,0.2-0.44,0.299-0.746,0.299
				c-0.267,0-0.475-0.068-0.618-0.215C312.385,45.242,312.185,44.981,311.94,44.607"/>
			<path style="fill:#B22F2B;" d="M316.689,45.596c-0.33,0.001-0.613-0.105-0.854-0.319c-0.24-0.209-0.362-0.509-0.363-0.896
				c-0.001-0.325,0.115-0.606,0.344-0.839c0.231-0.236,0.511-0.354,0.848-0.354c0.335-0.001,0.62,0.117,0.862,0.346
				c0.236,0.232,0.356,0.515,0.357,0.843c0.001,0.381-0.119,0.681-0.354,0.893C317.288,45.489,317.008,45.596,316.689,45.596"/>
			<path style="fill:#B22F2B;" d="M327.55,42.874c0,0.27-0.08,0.563-0.244,0.872c-0.161,0.312-0.41,0.605-0.745,0.886
				c-0.332,0.28-0.75,0.509-1.258,0.679c-0.506,0.171-1.078,0.26-1.71,0.261c-1.353,0.002-2.409-0.392-3.168-1.175
				c-0.756-0.787-1.137-1.843-1.139-3.165c-0.001-0.899,0.169-1.69,0.518-2.38c0.342-0.687,0.844-1.221,1.498-1.598
				c0.656-0.379,1.444-0.567,2.353-0.568c0.568-0.001,1.085,0.081,1.561,0.246c0.473,0.164,0.87,0.379,1.201,0.637
				c0.326,0.264,0.578,0.541,0.751,0.834c0.175,0.296,0.26,0.573,0.26,0.831c0,0.259-0.095,0.481-0.288,0.664
				c-0.198,0.181-0.434,0.274-0.706,0.274c-0.184,0-0.335-0.047-0.456-0.139c-0.121-0.094-0.257-0.244-0.404-0.456
				c-0.268-0.403-0.546-0.708-0.841-0.908c-0.289-0.204-0.658-0.304-1.107-0.303c-0.642,0.001-1.165,0.253-1.56,0.759
				c-0.393,0.503-0.59,1.197-0.589,2.068c0.001,0.411,0.054,0.791,0.156,1.135c0.099,0.343,0.246,0.636,0.44,0.879
				c0.194,0.241,0.425,0.425,0.697,0.55c0.273,0.129,0.574,0.189,0.896,0.188c0.439-0.001,0.814-0.103,1.126-0.306
				c0.316-0.204,0.591-0.513,0.829-0.93c0.133-0.245,0.275-0.436,0.428-0.576c0.154-0.138,0.344-0.21,0.569-0.211
				c0.267,0,0.489,0.103,0.663,0.304C327.46,42.428,327.55,42.646,327.55,42.874"/>
			<path style="fill:#B22F2B;" d="M336.974,41.122c0.001,0.648-0.101,1.251-0.296,1.802c-0.207,0.55-0.497,1.023-0.882,1.416
				c-0.383,0.396-0.843,0.699-1.373,0.912c-0.539,0.209-1.137,0.318-1.801,0.319c-0.661,0.001-1.258-0.106-1.787-0.319
				c-0.525-0.209-0.987-0.516-1.371-0.909c-0.389-0.401-0.683-0.87-0.888-1.411c-0.194-0.542-0.297-1.141-0.298-1.795
				c-0.001-0.662,0.102-1.269,0.299-1.819c0.203-0.551,0.494-1.022,0.873-1.411c0.379-0.39,0.835-0.69,1.372-0.904
				c0.542-0.211,1.136-0.317,1.786-0.318c0.661-0.001,1.262,0.103,1.802,0.319c0.538,0.21,0.997,0.516,1.386,0.907
				c0.387,0.399,0.678,0.866,0.878,1.407C336.871,39.866,336.973,40.463,336.974,41.122 M334.781,41.126
				c-0.002-0.892-0.2-1.584-0.592-2.079c-0.391-0.501-0.919-0.746-1.58-0.745c-0.428,0.001-0.804,0.112-1.131,0.333
				c-0.325,0.221-0.573,0.548-0.748,0.982c-0.175,0.433-0.264,0.938-0.263,1.516c0.001,0.572,0.088,1.068,0.263,1.493
				c0.176,0.43,0.424,0.755,0.748,0.981c0.325,0.224,0.704,0.339,1.14,0.339c0.661-0.001,1.188-0.251,1.577-0.754
				C334.586,42.694,334.782,42.003,334.781,41.126"/>
			<path style="fill:#B22F2B;" d="M345.307,41.268l0.005,2.903c0.001,0.461-0.1,0.801-0.309,1.035
				c-0.21,0.23-0.481,0.345-0.823,0.345c-0.331,0.001-0.602-0.113-0.802-0.342c-0.209-0.233-0.315-0.573-0.315-1.034l-0.006-3.48
				c-0.001-0.55-0.019-0.979-0.056-1.284c-0.039-0.298-0.142-0.552-0.306-0.743c-0.166-0.198-0.429-0.295-0.785-0.295
				c-0.717,0.001-1.185,0.246-1.411,0.745c-0.225,0.486-0.34,1.191-0.339,2.112l0.005,2.95c0.001,0.453-0.102,0.797-0.303,1.031
				c-0.21,0.231-0.477,0.348-0.812,0.349c-0.333,0.001-0.604-0.116-0.815-0.346c-0.213-0.233-0.318-0.577-0.318-1.03l-0.011-6.25
				c-0.001-0.412,0.093-0.725,0.281-0.937c0.193-0.217,0.443-0.322,0.749-0.323c0.3,0,0.549,0.103,0.752,0.298
				c0.199,0.2,0.299,0.477,0.3,0.829l0,0.207c0.381-0.451,0.786-0.786,1.215-0.997c0.435-0.22,0.911-0.327,1.442-0.327
				c0.549-0.001,1.02,0.109,1.414,0.326c0.396,0.219,0.72,0.551,0.979,0.99c0.369-0.446,0.765-0.779,1.186-0.997
				c0.421-0.217,0.886-0.326,1.4-0.327c0.595-0.001,1.113,0.118,1.546,0.35c0.43,0.234,0.753,0.571,0.968,1.005
				c0.187,0.398,0.28,1.019,0.281,1.867l0.007,4.265c0.001,0.461-0.102,0.801-0.308,1.035c-0.207,0.23-0.484,0.345-0.824,0.345
				c-0.332,0.001-0.602-0.116-0.814-0.346c-0.211-0.233-0.318-0.577-0.318-1.03l-0.006-3.674c-0.001-0.471-0.021-0.845-0.06-1.127
				c-0.04-0.284-0.15-0.522-0.324-0.713c-0.179-0.192-0.447-0.289-0.803-0.288c-0.288,0-0.561,0.091-0.82,0.26
				c-0.258,0.168-0.46,0.402-0.606,0.686C345.388,39.68,345.306,40.333,345.307,41.268"/>
		</g>
		<g>
			<path style="fill:#B22F2B;" d="M243.624,40.751c-0.002-0.004-0.002-0.008-0.002-0.015
				C243.622,40.743,243.622,40.747,243.624,40.751z"/>
			<path style="fill:#B22F2B;" d="M243.735,41.45c0.002,0,0.002,0,0.003,0c-0.042-0.199-0.075-0.396-0.101-0.591
				C243.662,41.055,243.695,41.253,243.735,41.45z"/>
			<path style="fill:#B22F2B;" d="M244.462,43.475c-0.005-0.008-0.009-0.018-0.015-0.028
				C244.453,43.457,244.457,43.467,244.462,43.475z"/>
			<path style="fill:#B22F2B;" d="M244.392,43.341c-0.019-0.037-0.037-0.076-0.055-0.113
				C244.355,43.268,244.373,43.304,244.392,43.341z"/>
			<path style="fill:#B22F2B;" d="M243.94,42.23c0.108,0.337,0.237,0.664,0.387,0.975c-0.152-0.318-0.279-0.645-0.384-0.975
				C243.942,42.23,243.94,42.23,243.94,42.23z"/>
			<path style="fill:#B22F2B;" d="M252.065,32.366c0.422-0.001,0.734,0.032,1.091,0.092l0.1-0.643c0,0-0.987-0.302-2.284-0.194
				l-0.103-0.35c0.403-0.085,0.705-0.445,0.704-0.872c-0.001-0.49-0.401-0.887-0.892-0.886c-0.491,0.001-0.888,0.399-0.888,0.889
				c0.001,0.428,0.303,0.786,0.706,0.87l0.113,0.39c-1.376,0.192-2.471,0.731-2.471,0.731l0.195,0.594
				c0.832-0.279,1.554-0.449,2.21-0.52C251.189,32.398,251.672,32.367,252.065,32.366z"/>
			<path style="fill:#B22F2B;" d="M244.432,35.63l0.005-0.007c0.032-0.042,0.064-0.082,0.095-0.12l-0.264-0.19l-0.411-0.3
				c-0.023,0.032-0.669,0.628-1.178,1.727c-0.021-0.035-0.047-0.068-0.076-0.1c-0.153-0.167-0.367-0.252-0.639-0.247
				c-0.003,0-0.008,0-0.012,0c-0.168,0-0.284-0.055-0.36-0.124c0.075-0.096,0.12-0.216,0.12-0.348
				c-0.001-0.31-0.254-0.563-0.565-0.563c-0.311,0-0.563,0.254-0.562,0.564c0.001,0.312,0.253,0.563,0.564,0.563
				c0.049,0,0.096-0.008,0.141-0.017c0.139,0.154,0.359,0.287,0.681,0.28c0.166-0.002,0.287,0.041,0.369,0.13
				c0.094,0.102,0.125,0.249,0.135,0.36c-0.001,0.002-0.001,0.004-0.003,0.004c-0.365,1.003-0.258,2.25-0.258,2.25l0.891,0.034
				c0.017-0.454,0.081-1.249,0.31-1.88C243.855,36.426,244.409,35.662,244.432,35.63z"/>
			<path style="fill:#B22F2B;" d="M259.816,33.098c-0.31,0-0.563,0.253-0.563,0.564c0,0.049,0.008,0.095,0.02,0.139
				c-0.154,0.14-0.288,0.361-0.283,0.683c0.003,0.166-0.04,0.286-0.129,0.368c-0.072,0.063-0.161,0.097-0.249,0.119
				c-0.665-0.928-1.482-1.493-1.482-1.493l-0.638,0.686c0.484,0.438,0.978,0.988,1.459,1.674c0.332,0.474,0.675,1.086,0.96,1.696
				l0.862-0.411c0,0-0.396-0.973-0.952-1.844c0.096-0.034,0.193-0.087,0.279-0.163c0.168-0.153,0.251-0.368,0.246-0.639
				c-0.002-0.175,0.055-0.294,0.124-0.372c0.096,0.073,0.217,0.12,0.347,0.12c0.313-0.001,0.564-0.254,0.563-0.565
				C260.381,33.349,260.129,33.097,259.816,33.098z"/>
			<path style="fill:#B22F2B;" d="M257.591,40.854c-1.186,0.58-3.139,1.348-5.71,1.711c-1.009,0.142-1.987,0.195-2.888,0.197
				c-1.171,0.002-2.207-0.083-3.001-0.182c-0.907-0.113-1.616-0.252-2.049-0.349c0.105,0.33,0.231,0.657,0.384,0.975
				c0.003,0.008,0.007,0.017,0.011,0.023c0.018,0.037,0.036,0.076,0.055,0.113c0.018,0.037,0.036,0.073,0.055,0.107
				c0.005,0.01,0.01,0.02,0.015,0.028c0.256,0.48,0.563,0.921,0.912,1.303c1.215,1.325,2.452,1.533,2.463,1.534l0.019,0.002
				l0.018,0.007c0.011,0.004,1.108,0.356,2.773,0.353c1.639-0.003,3.247-0.336,4.778-0.991c1.134-0.583,2.206-1.466,2.737-2.254
				c0.41-0.61,0.706-1.259,0.881-1.934c0.093-0.359,0.166-0.933,0.122-1.538C258.833,40.183,258.305,40.504,257.591,40.854z"/>
			<path style="fill:#B22F2B;" d="M244.814,35.91c-0.035,0.05-0.548,0.78-0.953,1.899c-0.303,0.839-0.288,2.059-0.288,2.073v0.002
				c0.001,0.286,0.017,0.57,0.049,0.851c0,0.007,0,0.011,0.002,0.015c0.003,0.036,0.01,0.071,0.013,0.107
				c0.026,0.195,0.059,0.392,0.101,0.591c0.59,0.149,4.111,0.964,8.044,0.409c2.465-0.347,4.336-1.079,5.472-1.632
				c0.944-0.46,1.55-0.875,1.784-1.046c-0.235-0.866-0.882-2.223-1.474-3.069c-1.693-2.411-3.516-3.027-4.451-3.18
				c-0.357-0.058-0.643-0.091-1.047-0.09c-0.377,0.001-0.844,0.032-1.468,0.099c-0.626,0.066-1.324,0.232-2.132,0.506
				c-1.135,0.382-2.161,0.98-2.968,1.73l-0.028,0.026C245.35,35.311,245.101,35.544,244.814,35.91z M255.149,35.331
				c0.809-0.001,1.469,0.656,1.471,1.466c0.001,0.81-0.656,1.47-1.466,1.472c-0.81,0.001-1.469-0.656-1.47-1.467
				C253.682,35.992,254.338,35.332,255.149,35.331z M248.206,35.284c1.311-0.002,2.375,1.059,2.377,2.369
				c0.002,1.31-1.058,2.373-2.369,2.375c-1.31,0.002-2.374-1.056-2.376-2.367C245.835,36.351,246.896,35.287,248.206,35.284z"/>
		</g>
	</g>
</g>
</svg>
